<?xml version="1.0" standalone="no"?>
<!DOCTYPE svg PUBLIC "-//W3C//DTD SVG 20010904//EN"
 "http://www.w3.org/TR/2001/REC-SVG-20010904/DTD/svg10.dtd">
<svg version="1.0" xmlns="http://www.w3.org/2000/svg"
 width="246.000000pt" height="196.000000pt" viewBox="0 0 246.000000 196.000000"
 preserveAspectRatio="xMidYMid meet">

<g transform="translate(0.000000,196.000000) scale(0.100000,-0.100000)"
fill="#000000" stroke="none">
<path d="M1252 1948 c-7 -7 -12 -20 -12 -29 0 -10 47 -107 105 -216 58 -109
105 -205 105 -214 0 -8 -45 -106 -100 -218 -55 -111 -100 -210 -100 -221 0
-11 9 -24 20 -30 20 -11 104 30 356 172 47 26 53 27 67 13 14 -14 15 -12 11
22 -3 26 -2 32 4 19 6 -13 11 -16 16 -8 3 6 80 50 169 98 89 48 172 96 185
108 22 20 23 20 16 1 -4 -11 -4 -17 1 -13 4 4 25 -2 46 -12 21 -11 42 -20 46
-20 4 1 -12 11 -35 24 l-44 22 37 28 c51 39 45 63 -25 99 -120 61 -830 387
-843 387 -7 0 -18 -5 -25 -12z m301 -245 c-7 -2 -21 -2 -30 0 -10 3 -4 5 12 5
17 0 24 -2 18 -5z m67 -23 c19 -11 31 -19 25 -19 -5 0 -26 8 -45 19 -19 11
-30 19 -25 19 6 0 26 -8 45 -19z m140 -64 c0 -2 -7 -7 -16 -10 -8 -3 -12 -2
-9 4 6 10 25 14 25 6z m129 -60 c27 -14 40 -26 33 -30 -7 -4 -12 -2 -12 4 0 7
-7 9 -16 6 -10 -4 -13 -2 -8 6 5 8 1 9 -12 4 -10 -4 -15 -4 -11 0 4 5 -3 14
-15 21 -41 22 -4 13 41 -11z m150 -70 c20 -11 21 -14 7 -19 -12 -5 -15 -3 -10
5 5 8 2 9 -10 5 -11 -5 -15 -3 -10 5 5 8 2 9 -10 5 -10 -4 -15 -3 -11 3 8 13
15 12 44 -4z"/>
<path d="M888 1763 c-10 -2 -18 -9 -18 -14 0 -6 9 -5 21 1 11 7 32 9 46 5 16
-4 22 -2 18 5 -6 10 -35 12 -67 3z"/>
<path d="M805 1731 c6 -11 4 -13 -9 -8 -11 5 -15 3 -10 -5 5 -8 2 -9 -10 -5
-10 4 -15 3 -11 -3 8 -12 25 -13 45 0 13 8 13 11 1 22 -11 11 -13 11 -6 -1z"/>
<path d="M948 1703 c7 -3 16 -2 19 1 4 3 -2 6 -13 5 -11 0 -14 -3 -6 -6z"/>
<path d="M730 1690 c-8 -5 -12 -11 -9 -14 3 -3 14 1 25 9 21 16 8 20 -16 5z"/>
<path d="M938 1683 c7 -3 16 -2 19 1 4 3 -2 6 -13 5 -11 0 -14 -3 -6 -6z"/>
<path d="M580 1620 c-8 -5 -10 -10 -5 -10 6 0 17 5 25 10 8 5 11 10 5 10 -5 0
-17 -5 -25 -10z"/>
<path d="M527 1593 c3 -6 11 -9 19 -6 20 7 17 19 -5 19 -11 0 -17 -6 -14 -13z"/>
<path d="M480 1575 c-14 -8 -20 -14 -15 -14 6 0 21 6 35 14 14 8 21 14 15 14
-5 0 -21 -6 -35 -14z"/>
<path d="M356 1517 c3 -10 9 -15 12 -12 3 3 0 11 -7 18 -10 9 -11 8 -5 -6z"/>
<path d="M330 1511 c0 -5 -9 -13 -21 -16 -11 -4 -18 -9 -16 -12 3 -2 18 2 33
10 17 9 23 17 15 21 -6 4 -11 3 -11 -3z"/>
<path d="M1323 1508 c-5 -7 -60 -117 -123 -245 -110 -226 -124 -269 -83 -261
20 4 244 448 246 488 2 27 -24 39 -40 18z"/>
<path d="M838 1493 c7 -3 16 -2 19 1 4 3 -2 6 -13 5 -11 0 -14 -3 -6 -6z"/>
<path d="M956 1414 c-150 -71 -181 -83 -194 -72 -12 10 -14 10 -8 1 4 -7 3
-13 -3 -13 -6 0 -8 -6 -5 -13 2 -7 -3 -13 -13 -14 -10 -1 -85 -34 -168 -74
-82 -39 -161 -75 -174 -80 -18 -7 -21 -12 -12 -23 6 -7 7 -17 3 -21 -4 -5 1
-5 11 -2 10 4 16 3 12 -3 -3 -5 3 -8 13 -7 24 1 174 -82 167 -94 -4 -5 -28 3
-56 16 -31 16 -47 30 -43 37 5 8 2 9 -10 5 -11 -5 -15 -3 -10 5 5 8 2 9 -10 5
-11 -5 -15 -3 -10 4 4 7 1 10 -7 7 -18 -7 -71 20 -64 32 10 16 -61 5 -89 -13
-30 -20 -34 -47 -8 -69 9 -8 170 -98 357 -200 548 -299 511 -281 534 -268 12
6 21 20 21 30 0 11 -45 110 -100 220 -55 110 -100 209 -100 220 0 11 47 109
105 218 58 109 105 205 105 213 0 22 -21 39 -44 38 -12 -1 -101 -39 -200 -85z
m-332 -435 c-4 -7 -1 -10 7 -7 21 8 111 -40 103 -54 -5 -8 -2 -9 10 -5 11 5
15 3 10 -4 -4 -7 -1 -10 7 -7 21 8 111 -40 103 -54 -5 -8 -2 -9 10 -5 9 4 15
3 12 -2 -3 -5 10 -8 29 -6 20 2 33 -1 30 -6 -8 -12 -52 -11 -76 2 -11 5 -16
15 -13 21 5 8 1 9 -10 5 -11 -5 -15 -3 -10 5 5 8 2 9 -10 5 -11 -5 -15 -3 -10
4 4 7 1 10 -7 7 -21 -8 -91 30 -83 44 5 8 1 9 -10 5 -11 -5 -15 -3 -10 5 5 8
2 9 -10 5 -11 -5 -15 -3 -10 4 4 7 1 10 -7 7 -19 -7 -71 20 -64 32 4 6 8 10
11 10 3 0 2 -5 -2 -11z m333 -121 c-3 -7 -5 -2 -5 12 0 14 2 19 5 13 2 -7 2
-19 0 -25z"/>
<path d="M246 1467 c3 -10 9 -15 12 -12 3 3 0 11 -7 18 -10 9 -11 8 -5 -6z"/>
<path d="M220 1460 c0 -6 -4 -8 -10 -5 -5 3 -10 2 -10 -4 0 -5 -9 -13 -21 -16
-11 -4 -18 -9 -16 -12 3 -2 18 2 35 11 16 8 32 12 36 9 3 -4 6 -1 6 5 0 6 -4
14 -10 17 -5 3 -10 1 -10 -5z"/>
<path d="M90 1402 c0 -5 -13 -15 -30 -22 -29 -12 -41 -30 -20 -30 6 0 10 4 10
9 0 10 39 27 53 23 11 -3 9 16 -3 23 -5 3 -10 2 -10 -3z"/>
<path d="M772 1386 c-9 -19 -8 -24 3 -22 22 3 28 13 18 31 -8 14 -11 13 -21
-9z"/>
<path d="M2227 1393 c-11 -10 -8 -20 6 -20 6 0 21 -4 32 -8 l20 -7 -20 13
c-11 7 -23 16 -26 21 -3 4 -8 5 -12 1z"/>
<path d="M12 1340 c0 -14 2 -19 5 -12 2 6 2 18 0 25 -3 6 -5 1 -5 -13z"/>
<path d="M30 1306 c0 -2 6 -9 14 -15 11 -9 16 -9 22 0 4 8 3 9 -4 5 -7 -4 -12
-2 -12 3 0 6 -4 11 -10 11 -5 0 -10 -2 -10 -4z"/>
<path d="M2407 1290 c21 -24 24 -25 16 -3 -5 12 -3 14 8 8 8 -4 11 -4 6 0 -4
5 -16 10 -27 12 -19 3 -19 2 -3 -17z"/>
<path d="M2416 1244 c-4 -9 -4 -19 -1 -22 2 -3 7 3 11 12 4 9 4 19 1 22 -2 3
-7 -3 -11 -12z"/>
<path d="M137 1233 c3 -7 6 -13 8 -13 2 0 5 6 8 13 3 8 -1 14 -8 14 -7 0 -11
-6 -8 -14z"/>
<path d="M2350 1196 c-14 -8 -28 -12 -31 -10 -4 2 -10 -3 -13 -11 -4 -12 -2
-13 13 -6 10 6 21 7 25 4 3 -3 6 -1 6 6 0 7 4 10 9 7 5 -3 11 1 15 9 6 18 7
18 -24 1z"/>
<path d="M226 1185 c3 -8 10 -12 15 -9 5 3 9 1 9 -5 0 -10 26 -9 35 2 3 4 2 5
-1 2 -4 -2 -19 2 -35 11 -25 13 -28 13 -23 -1z"/>
<path d="M1680 1160 c-6 -11 -8 -20 -6 -20 3 0 10 9 16 20 6 11 8 20 6 20 -3
0 -10 -9 -16 -20z"/>
<path d="M2227 1123 c3 -7 6 -13 8 -13 2 0 5 6 8 13 3 8 -1 14 -8 14 -7 0 -11
-6 -8 -14z"/>
<path d="M2108 1064 c-32 -17 -34 -21 -13 -21 8 0 15 4 15 9 0 5 4 7 9 4 5 -3
11 1 15 9 6 18 8 18 -26 -1z"/>
<path d="M1622 1045 c-17 -37 -14 -45 4 -12 9 16 14 31 11 33 -2 2 -9 -7 -15
-21z"/>
<path d="M490 1046 c0 -2 7 -7 16 -10 8 -3 12 -2 9 4 -6 10 -25 14 -25 6z"/>
<path d="M2000 1009 c0 -5 -4 -7 -10 -4 -5 3 -10 1 -10 -5 0 -6 -4 -9 -9 -6
-5 3 -12 -1 -15 -9 -5 -14 -2 -14 23 -1 16 9 32 12 35 8 4 -3 4 1 0 11 -7 19
-14 22 -14 6z"/>
<path d="M1583 964 c-4 -10 -8 -12 -13 -5 -3 6 -14 -4 -23 -25 -10 -21 -12
-32 -5 -28 8 5 9 2 4 -12 -28 -69 -19 -59 23 24 17 34 29 62 26 62 -3 0 -8 -7
-12 -16z m-22 -41 c-12 -20 -14 -14 -5 12 4 9 9 14 11 11 3 -2 0 -13 -6 -23z"/>
<path d="M1870 939 c0 -5 -6 -7 -12 -3 -7 4 -9 3 -5 -1 13 -15 36 -14 30 1 -6
17 -13 18 -13 3z"/>
<path d="M1760 876 c-14 -8 -29 -12 -34 -9 -5 4 -6 1 -2 -5 5 -8 13 -9 25 -2
10 5 21 6 25 3 3 -3 6 -1 6 6 0 7 5 9 12 5 7 -4 8 -3 4 4 -9 14 -5 14 -36 -2z"/>
<path d="M1506 853 c-8 -20 9 -40 19 -22 6 8 4 10 -5 4 -9 -5 -10 -2 -5 14 8
25 0 29 -9 4z"/>
<path d="M1492 800 c0 -14 2 -19 5 -12 2 6 2 18 0 25 -3 6 -5 1 -5 -13z"/>
<path d="M1634 812 c4 -3 14 -7 22 -8 9 -1 13 0 10 4 -4 3 -14 7 -22 8 -9 1
-13 0 -10 -4z"/>
<path d="M1510 781 c0 -6 4 -13 10 -16 6 -3 7 1 4 9 -7 18 -14 21 -14 7z"/>
<path d="M328 412 l-78 -3 0 -150 0 -150 58 6 c31 4 68 2 82 -3 26 -10 30 -7
81 39 15 15 31 24 35 20 4 -3 5 1 1 11 -3 9 -3 19 0 22 12 12 5 93 -11 124 -9
17 -14 32 -10 32 4 0 1 7 -6 15 -7 8 -16 12 -21 9 -5 -3 -12 2 -15 10 -3 9
-11 13 -16 10 -6 -4 -13 -3 -17 2 -3 5 -41 8 -83 6z m107 -42 c14 -13 25 -29
25 -37 0 -7 5 -13 11 -13 6 0 8 -9 4 -20 -4 -11 -2 -20 4 -20 6 0 11 -11 11
-25 0 -14 -5 -25 -11 -25 -6 0 -8 -8 -4 -19 3 -12 0 -21 -10 -25 -9 -3 -14
-10 -11 -15 3 -5 -1 -14 -9 -21 -8 -7 -15 -9 -15 -4 0 5 -6 2 -13 -6 -9 -12
-26 -15 -77 -10 l-65 5 -3 110 c-4 146 3 159 80 153 43 -3 64 -10 83 -28z"/>
<path d="M643 410 c-13 -5 -23 -7 -23 -4 0 3 -6 -1 -14 -8 -8 -7 -12 -16 -9
-20 2 -5 1 -8 -4 -8 -4 0 -8 -18 -8 -40 0 -31 5 -42 23 -51 12 -7 22 -16 22
-20 0 -5 7 -6 15 -3 8 4 15 1 15 -5 0 -6 7 -8 15 -5 8 4 15 1 15 -6 0 -6 4 -9
8 -6 13 8 39 -28 37 -50 -2 -30 -37 -59 -73 -60 -18 -1 -32 2 -32 8 0 5 -4 7
-9 3 -5 -3 -12 -1 -16 5 -3 5 -14 10 -23 10 -13 0 -12 -5 8 -23 14 -13 33 -22
43 -19 9 2 17 -1 17 -7 0 -6 7 -11 15 -11 8 0 15 5 15 11 0 6 9 9 20 6 11 -3
20 -1 20 3 0 5 9 12 20 15 11 4 18 11 15 16 -4 5 -3 9 2 9 14 0 8 75 -7 88
-11 10 -11 12 -1 6 9 -5 12 -3 7 5 -4 6 -11 9 -16 6 -4 -3 -13 2 -20 10 -7 8
-16 15 -21 15 -5 0 -27 8 -49 17 -29 13 -40 24 -40 39 0 23 32 58 43 47 4 -3
7 -1 7 5 0 7 9 12 20 12 11 0 20 -3 20 -7 0 -5 11 -9 25 -9 26 -2 30 4 17 21
-9 13 -71 16 -99 5z"/>
<path d="M810 400 c0 -5 21 -10 46 -10 70 0 74 -9 74 -154 0 -77 4 -126 10
-126 6 0 10 49 10 126 0 141 5 154 64 154 20 0 36 5 36 10 0 6 -47 10 -120 10
-73 0 -120 -4 -120 -10z"/>
<path d="M1143 275 c-39 -17 -53 -42 -53 -95 0 -54 34 -90 85 -90 39 0 75 15
75 30 0 6 -16 8 -39 4 -21 -3 -47 -1 -59 5 -29 15 -38 66 -17 97 14 22 22 25
62 22 53 -3 67 12 28 30 -32 15 -42 15 -82 -3z"/>
<path d="M2100 270 c0 -23 25 -27 33 -6 7 16 -1 26 -20 26 -7 0 -13 -9 -13
-20z"/>
<path d="M2010 261 c0 -5 -7 -17 -16 -26 -11 -11 -13 -19 -6 -28 6 -7 12 -35
14 -62 3 -48 4 -50 36 -53 35 -4 44 12 12 21 -16 4 -20 14 -20 45 0 31 4 41
20 45 11 3 20 10 20 16 0 6 -9 11 -20 11 -13 0 -20 7 -20 20 0 11 -4 20 -10
20 -5 0 -10 -4 -10 -9z"/>
<path d="M1293 204 c-20 -20 -24 -31 -19 -57 8 -39 30 -57 71 -57 40 0 65 27
65 68 0 67 -69 94 -117 46z m83 -31 c9 -34 -7 -58 -37 -58 -19 0 -25 6 -27 28
-5 41 4 57 32 57 19 0 27 -7 32 -27z"/>
<path d="M1440 158 c0 -53 3 -68 14 -68 11 0 16 15 18 53 3 45 6 52 26 55 21
3 22 0 22 -52 0 -49 2 -56 20 -56 18 0 20 7 20 56 0 52 1 55 23 52 19 -3 22
-10 25 -55 2 -38 7 -53 18 -53 10 0 14 14 14 54 0 75 -30 103 -80 76 -11 -6
-21 -6 -24 -1 -4 5 -26 9 -51 9 l-45 -1 0 -69z"/>
<path d="M1680 135 c0 -78 3 -95 15 -95 10 0 15 10 15 28 0 26 3 28 28 24 39
-5 62 20 62 68 0 59 -35 84 -81 60 -13 -7 -19 -7 -19 0 0 5 -4 10 -10 10 -6 0
-10 -38 -10 -95z m88 29 c3 -34 -18 -60 -43 -50 -9 3 -15 18 -15 39 0 40 7 49
35 45 14 -2 21 -12 23 -34z"/>
<path d="M1830 171 c0 -70 10 -81 73 -79 l47 1 0 68 c0 55 -3 69 -15 69 -11 0
-15 -13 -15 -54 0 -47 -3 -56 -21 -61 -28 -9 -39 9 -39 68 0 35 -4 47 -15 47
-12 0 -15 -13 -15 -59z"/>
<path d="M2100 160 c0 -56 3 -70 15 -70 12 0 15 14 15 70 0 56 -3 70 -15 70
-12 0 -15 -14 -15 -70z"/>
<path d="M2170 160 c0 -63 2 -70 20 -70 18 0 20 7 20 55 0 52 1 55 25 55 24 0
25 -3 25 -55 0 -49 2 -55 21 -55 20 0 21 4 17 56 -6 71 -26 93 -68 77 -17 -6
-30 -7 -30 -2 0 5 -7 9 -15 9 -12 0 -15 -14 -15 -70z"/>
<path d="M2341 211 c-16 -16 -19 -26 -12 -39 6 -11 6 -35 -1 -66 -12 -56 -4
-66 53 -66 35 0 69 23 69 48 0 15 -33 32 -64 32 -14 0 -26 5 -26 10 0 6 10 10
23 10 27 0 47 17 47 41 0 10 6 19 13 22 19 7 6 14 -40 22 -34 5 -45 3 -62 -14z
m59 -26 c0 -9 -7 -18 -16 -22 -18 -7 -39 11 -30 26 11 17 46 13 46 -4z m20
-105 c0 -12 -45 -24 -59 -15 -22 13 -10 25 24 25 19 0 35 -4 35 -10z"/>
</g>
</svg>
